<svg width="406" height="283" viewBox="0 0 406 283" fill="none" xmlns="http://www.w3.org/2000/svg">
<path d="M193.99 14.3519C158.61 50.5052 151.577 57.7499 138.072 71.8876C130.124 80.1874 121.613 89.1906 119.081 91.9337C116.549 94.6065 111.625 99.8115 108.108 103.539C98.7535 113.316 89.5393 123.656 89.5393 124.359C89.5393 124.711 89.8207 124.64 90.102 124.289C90.3834 123.867 92.0011 122.671 93.7595 121.546C97.4171 119.154 133.078 93.6921 142.784 86.5178C146.372 83.9153 149.607 81.7348 149.959 81.7348C150.311 81.7348 151.436 83.2119 152.561 85.0407C155.727 90.5973 159.243 95.8023 159.876 95.8023C160.158 95.8023 163.112 92.2151 166.418 87.8542C169.724 83.5636 175.984 75.4045 180.415 69.7775C184.776 64.1506 189.981 57.3982 191.88 54.8661C193.849 52.2636 195.608 50.1535 195.819 50.0832C196.03 50.0832 199.547 53.811 203.556 58.3126C207.565 62.8845 211.152 66.9641 211.574 67.3861C211.926 67.8081 214.528 70.6216 217.201 73.6461C219.944 76.6706 222.476 79.4841 222.898 79.9061C223.25 80.3281 225.149 82.4382 227.048 84.5483L230.424 88.3465L230.002 82.7899C229.721 79.6951 229.229 73.2241 228.807 68.3708C228.455 63.5175 227.752 55.6398 227.33 50.7865C226.486 40.7987 226.486 41.4317 226.626 40.7987C226.697 40.3766 232.746 46.5663 238.654 53.2483C259.825 77.0926 269.462 86.5178 283.599 97.42C285.006 98.4751 286.764 99.9521 287.538 100.585C289.437 102.203 315.392 121.405 316.728 122.179C317.783 122.741 317.291 122.108 312.156 116.13C310.609 114.371 308.428 111.839 307.303 110.503C305.333 108.252 298.511 100.445 293.798 95.0989C290.914 91.8634 285.709 85.9551 280.434 79.9061C276.988 76.0375 258.348 54.8661 244.984 39.8843C242.241 36.8598 237.529 31.5845 227.33 20.5416C223.602 16.462 217.975 10.202 214.739 6.61484C211.574 3.09799 208.69 0.143828 208.409 0.143828C208.128 0.143828 201.657 6.5445 193.99 14.3519Z" fill="#F03B38"/>
<path d="M0.211235 101.007V121.124L3.16539 124.5C10.8321 133.011 52.753 178.87 59.2944 185.904C60.2791 186.959 62.9519 189.843 73.3618 200.956C75.8939 203.699 81.4506 209.678 85.7411 214.32C90.0317 218.962 100.16 229.865 108.249 238.587C116.338 247.308 128.506 260.532 135.399 267.917C142.222 275.302 147.989 281.211 148.2 281C148.411 280.789 148.622 238.938 148.622 188.014C148.622 97.42 148.622 95.5209 147.286 96.8573C146.583 97.631 141.589 103.188 136.243 109.166C130.827 115.215 124.778 121.968 122.809 124.289L119.081 128.368V167.827L119.011 207.287L112.891 200.956C109.515 197.439 102.411 189.913 97.0654 184.216C65.484 150.243 13.6456 94.5362 8.08899 88.4872C4.5018 84.5483 1.26629 81.2425 0.914606 81.1721C0.492583 81.0315 0.211235 88.3465 0.211235 101.007Z" fill="#132F44"/>
<path d="M395.506 91.9337C390.301 97.631 383.548 105.016 380.594 108.322L375.108 114.231V190.687C375.108 240.204 375.389 268.198 375.882 270.238C378.906 283.743 396.209 286.978 403.032 275.302L405.001 271.997L405.212 198.846C405.282 158.613 405.282 115.778 405.212 103.61L405.001 81.5942L395.506 91.9337Z" fill="#132F44"/>
<path d="M258.348 188.647V282.547L262.78 277.975C270.306 270.098 287.468 251.247 288.101 250.122C289.156 248.223 289.156 247.449 289.226 220.44L289.297 194.274H328.334H367.371V179.503V164.733L328.263 164.592L289.156 164.381L289.226 146.234L289.367 128.017L286.765 125.133C284.443 122.53 271.079 108.182 261.725 98.264L258.348 94.7472V188.647Z" fill="#132F44"/>
<path d="M0.211235 200.323C0.211235 250.262 0.422246 269.253 1.05528 271.012C3.3764 277.975 9.07371 282.407 15.6151 282.407C23.0004 282.407 28.8384 277.624 30.3858 270.168C30.8782 267.847 31.1595 249.348 31.1595 215.938V165.295L19.7649 152.916C13.4346 146.164 6.47124 138.638 4.29079 136.316L0.281572 132.026L0.211235 200.323Z" fill="#132F44"/>
<path d="M170.021 114.171C166.515 115.72 163.542 118.325 161.103 121.915C158.892 125.224 158.282 133.32 159.959 137.051C163.161 144.091 169.564 148.103 177.568 148.103C186.029 148.103 191.746 143.95 194.566 135.713C197.082 128.321 193.499 119.662 186.258 115.509C181.531 112.763 174.519 112.2 170.021 114.171Z" fill="#34BDB3"/>
<path d="M222.618 114.523C218.044 116.565 214.538 119.733 212.632 123.323C210.803 126.773 210.803 134.939 212.556 137.966C217.739 147.118 228.945 150.919 238.016 146.625C244.952 143.316 249.754 134.939 248.611 128.251C246.629 116.987 233.061 109.807 222.618 114.523Z" fill="#F48D3E"/>
<path d="M159.349 163.802C159.121 164.647 159.045 188.793 159.121 217.445L159.349 269.54L161.026 272.426C164.304 278.128 169.945 281.155 177.034 281.155C184.428 281.085 190.069 277.776 193.042 271.652C194.338 269.047 194.414 265.457 194.642 225.4C194.795 196.115 194.642 181.542 194.109 180.557C193.27 179.149 192.279 178.586 174.976 169.786C168.878 166.688 163.618 163.943 163.161 163.661C161.103 162.183 159.731 162.253 159.349 163.802Z" fill="#34BDB3"/>
<path d="M231.003 170.067C221.779 174.291 213.623 178.445 212.861 179.219C211.565 180.627 211.489 183.302 211.717 224.415L211.946 268.132L213.775 271.863C215.681 275.735 219.416 279.044 224.066 280.803C232.299 283.971 242.665 279.677 246.477 271.441C248.001 268.202 248.001 266.513 248.23 215.545C248.382 186.611 248.306 162.816 248.154 162.605C247.925 162.464 240.226 165.773 231.003 170.067Z" fill="#F48D3E"/>
</svg>
